<svg id="_001-maps-and-flags" data-name="001-maps-and-flags" xmlns="http://www.w3.org/2000/svg" width="60.74" height="60.74" viewBox="0 0 60.74 60.74">
  <g id="Group_21" data-name="Group 21">
    <g id="Group_20" data-name="Group 20">
      <path id="Path_217" data-name="Path 217" d="M30.37,0A30.37,30.37,0,1,0,60.74,30.37,30.353,30.353,0,0,0,30.37,0Zm0,56.69A26.321,26.321,0,1,1,56.69,30.37,26.35,26.35,0,0,1,30.37,56.69Z" fill="#ed1b24"/>
    </g>
  </g>
  <g id="Group_23" data-name="Group 23" transform="translate(13.7 18.617)">
    <g id="Group_22" data-name="Group 22">
      <path id="Path_218" data-name="Path 218" d="M148.233,157.523a2.025,2.025,0,0,0-2.863,0l-18.025,18.025-8.4-8.4a2.025,2.025,0,0,0-2.863,2.863l9.833,9.833a2.025,2.025,0,0,0,2.863,0l19.456-19.456A2.025,2.025,0,0,0,148.233,157.523Z" transform="translate(-115.487 -156.93)" fill="#ed1b24"/>
    </g>
  </g>
</svg>
