<svg id="_001-trash" data-name="001-trash" xmlns="http://www.w3.org/2000/svg" width="15.709" height="19.335" viewBox="0 0 15.709 19.335">
  <path id="Path_213" data-name="Path 213" d="M62.2,2.417H58.876v-.6A1.815,1.815,0,0,0,57.063,0H54.646a1.815,1.815,0,0,0-1.813,1.813v.6H49.511A1.512,1.512,0,0,0,48,3.927V6.042a.6.6,0,0,0,.6.6h.33l.522,10.962a1.81,1.81,0,0,0,1.811,1.726h9.175a1.81,1.81,0,0,0,1.811-1.726l.522-10.962h.33a.6.6,0,0,0,.6-.6V3.927A1.512,1.512,0,0,0,62.2,2.417Zm-8.157-.6a.6.6,0,0,1,.6-.6h2.417a.6.6,0,0,1,.6.6v.6H54.042ZM49.208,3.927a.3.3,0,0,1,.3-.3H62.2a.3.3,0,0,1,.3.3V5.438H49.208ZM61.046,17.551a.6.6,0,0,1-.6.575H51.267a.6.6,0,0,1-.6-.575l-.519-10.9H61.565Z" transform="translate(-48)" fill="#707070"/>
  <path id="Path_214" data-name="Path 214" d="M240.73,218.956a.73.73,0,0,0,.73-.73v-9.5a.73.73,0,1,0-1.461,0v9.5A.73.73,0,0,0,240.73,218.956Z" transform="translate(-232.876 -202.543)" fill="#707070"/>
  <path id="Path_215" data-name="Path 215" d="M320.73,218.956a.73.73,0,0,0,.73-.73v-9.5a.73.73,0,1,0-1.461,0v9.5A.73.73,0,0,0,320.73,218.956Z" transform="translate(-309.907 -202.543)" fill="#707070"/>
  <path id="Path_216" data-name="Path 216" d="M160.73,218.956a.73.73,0,0,0,.73-.73v-9.5a.73.73,0,1,0-1.461,0v9.5A.73.73,0,0,0,160.73,218.956Z" transform="translate(-155.844 -202.543)" fill="#707070"/>
</svg>
