<svg xmlns="http://www.w3.org/2000/svg" width="20.25" height="17.996" viewBox="0 0 20.25 17.996">
  <path id="Icon_awesome-edit" data-name="Icon awesome-edit" d="M14.154,2.925,17.325,6.1a.344.344,0,0,1,0,.485L9.647,14.259l-3.262.362a.684.684,0,0,1-.756-.756L5.991,10.6l7.678-7.678A.344.344,0,0,1,14.154,2.925Zm5.7-.805L18.134.4a1.375,1.375,0,0,0-1.941,0L14.948,1.649a.344.344,0,0,0,0,.485L18.12,5.305a.344.344,0,0,0,.485,0l1.245-1.245a1.375,1.375,0,0,0,0-1.941ZM13.5,12.171V15.75H2.25V4.5h8.079a.432.432,0,0,0,.3-.123l1.406-1.406a.422.422,0,0,0-.3-.721H1.688A1.688,1.688,0,0,0,0,3.938V16.313A1.688,1.688,0,0,0,1.688,18H14.063a1.688,1.688,0,0,0,1.688-1.687V10.765a.423.423,0,0,0-.721-.3l-1.406,1.406A.432.432,0,0,0,13.5,12.171Z" transform="translate(0 -0.004)" fill="#7e7e7e"/>
</svg>
