<svg xmlns="http://www.w3.org/2000/svg" width="21.614" height="21.505" viewBox="0 0 21.614 21.505">
  <g id="_001-edit" data-name="001-edit" transform="translate(0 -0.261)">
    <path id="Path_220" data-name="Path 220" d="M19.948,50.573a.538.538,0,0,0-.538.538v4.779A1.616,1.616,0,0,1,17.8,57.505H2.691a1.616,1.616,0,0,1-1.615-1.615V41.863a1.617,1.617,0,0,1,1.615-1.615H7.471a.538.538,0,0,0,0-1.077H2.691A2.694,2.694,0,0,0,0,41.863V55.891a2.694,2.694,0,0,0,2.691,2.691H17.8a2.694,2.694,0,0,0,2.691-2.691v-4.78A.538.538,0,0,0,19.948,50.573Zm0,0" transform="translate(0 -36.817)" fill="#fff"/>
    <path id="Path_221" data-name="Path 221" d="M122.64.97a2.422,2.422,0,0,0-3.426,0l-9.6,9.6a.538.538,0,0,0-.138.237l-1.263,4.559a.538.538,0,0,0,.662.663l4.559-1.263a.538.538,0,0,0,.237-.138l9.6-9.6a2.425,2.425,0,0,0,0-3.426Zm-11.856,9.953,7.86-7.86L121.178,5.6l-7.86,7.86Zm-.506,1.016,2.025,2.025-2.8.776ZM122.51,4.266l-.571.571L119.4,2.3l.571-.571a1.346,1.346,0,0,1,1.9,0l.632.632A1.348,1.348,0,0,1,122.51,4.266Zm0,0" transform="translate(-102.366)" fill="#fff"/>
  </g>
</svg>
