<svg xmlns="http://www.w3.org/2000/svg" width="17.5" height="20" viewBox="0 0 17.5 20">
  <path id="Icon_metro-file-text" data-name="Icon metro-file-text" d="M21.175,6.4a17.712,17.712,0,0,0-1.7-1.947,17.714,17.714,0,0,0-1.947-1.7,3.115,3.115,0,0,0-1.776-.824H6.061A1.564,1.564,0,0,0,4.5,3.491V20.366a1.564,1.564,0,0,0,1.563,1.563H20.436A1.564,1.564,0,0,0,22,20.366V8.178A3.115,3.115,0,0,0,21.175,6.4ZM18.588,5.339a17.048,17.048,0,0,1,1.418,1.589H17V3.921A17.03,17.03,0,0,1,18.588,5.339Zm2.161,15.027a.317.317,0,0,1-.312.313H6.061a.317.317,0,0,1-.312-.312V3.491a.317.317,0,0,1,.313-.312h9.688V7.553a.625.625,0,0,0,.625.625h4.375Zm-3.125-2.187H8.874a.625.625,0,1,1,0-1.25h8.75a.625.625,0,1,1,0,1.25Zm0-2.5H8.874a.625.625,0,1,1,0-1.25h8.75a.625.625,0,1,1,0,1.25Zm0-2.5H8.874a.625.625,0,1,1,0-1.25h8.75a.625.625,0,1,1,0,1.25Z" transform="translate(-4.499 -1.928)" fill="#7e7e7e"/>
</svg>
