<svg xmlns="http://www.w3.org/2000/svg" width="15" height="15" viewBox="0 0 15 15">
  <path id="Icon_material-local-phone" data-name="Icon material-local-phone" d="M5.517,8.992a12.624,12.624,0,0,0,5.492,5.492l1.833-1.833a.829.829,0,0,1,.85-.2,9.506,9.506,0,0,0,2.975.475.836.836,0,0,1,.833.833v2.908a.836.836,0,0,1-.833.833A14.165,14.165,0,0,1,2.5,3.333.836.836,0,0,1,3.333,2.5H6.25a.836.836,0,0,1,.833.833,9.467,9.467,0,0,0,.475,2.975.836.836,0,0,1-.208.85L5.517,8.992Z" transform="translate(-2.5 -2.5)" fill="#fff"/>
</svg>
