<svg xmlns="http://www.w3.org/2000/svg" width="15.75" height="18" viewBox="0 0 15.75 18">
  <path id="Icon_awesome-trash-alt" data-name="Icon awesome-trash-alt" d="M1.125,16.313A1.688,1.688,0,0,0,2.812,18H12.938a1.688,1.688,0,0,0,1.688-1.687V4.5H1.125Zm9.563-9a.563.563,0,0,1,1.125,0v7.875a.563.563,0,0,1-1.125,0Zm-3.375,0a.563.563,0,0,1,1.125,0v7.875a.563.563,0,0,1-1.125,0Zm-3.375,0a.563.563,0,0,1,1.125,0v7.875a.563.563,0,0,1-1.125,0Zm11.25-6.187H10.969l-.33-.657A.844.844,0,0,0,9.882,0H5.864a.834.834,0,0,0-.752.468l-.33.657H.563A.563.563,0,0,0,0,1.688V2.813a.562.562,0,0,0,.562.563H15.188a.562.562,0,0,0,.563-.562V1.688A.562.562,0,0,0,15.188,1.125Z" fill="#e92623"/>
</svg>
