<svg xmlns="http://www.w3.org/2000/svg" width="20.74" height="14" viewBox="0 0 20.74 14">
  <path id="Icon_zocial-email" data-name="Icon zocial-email" d="M.04,15.02V3.5q0-.02.06-.38l6.78,5.8L.12,15.42a1.7,1.7,0,0,1-.08-.4Zm.9-12.7a.862.862,0,0,1,.34-.06H19.54a1.133,1.133,0,0,1,.36.06L13.1,8.14l-.9.72-1.78,1.46L8.64,8.86l-.9-.72ZM.96,16.2,7.78,9.66l2.64,2.14,2.64-2.14,6.82,6.54a.96.96,0,0,1-.34.06H1.28a.906.906,0,0,1-.32-.06Zm13-7.28,6.76-5.8a1.194,1.194,0,0,1,.06.38V15.02a1.533,1.533,0,0,1-.06.4Z" transform="translate(-0.04 -2.26)" fill="#fff"/>
</svg>
